<?xml version="1.0" standalone="no"?>
<!DOCTYPE svg PUBLIC "-//W3C//DTD SVG 20010904//EN"
 "http://www.w3.org/TR/2001/REC-SVG-20010904/DTD/svg10.dtd">
<svg version="1.0" xmlns="http://www.w3.org/2000/svg"
 width="1280.000000pt" height="819.000000pt" viewBox="0 0 1280.000000 819.000000"
 preserveAspectRatio="xMidYMid meet">
<g transform="translate(0.000000,819.000000) scale(0.100000,-0.100000)"
fill="#000000" stroke="none">
<path d="M2555 8180 c-27 -5 -106 -16 -175 -25 -370 -48 -609 -133 -740 -265
-112 -111 -198 -317 -271 -643 l-33 -147 -134 -97 c-283 -205 -489 -387 -580
-511 -110 -150 -194 -328 -277 -584 -98 -305 -111 -377 -159 -903 -110 -1193
-134 -1494 -156 -1970 -6 -132 -15 -312 -20 -400 -13 -208 -13 -554 0 -775 6
-96 17 -294 25 -440 21 -355 47 -485 135 -665 131 -265 450 -541 760 -658 124
-46 378 -97 488 -97 122 0 312 48 437 110 171 85 381 260 525 436 148 180 334
503 556 964 155 322 188 381 239 430 21 19 64 70 97 113 32 42 65 77 73 77 8
0 35 -19 62 -42 87 -75 245 -189 307 -220 241 -122 598 -166 885 -109 311 61
628 211 796 376 79 79 164 208 262 401 l78 154 665 0 665 0 78 -154 c98 -193
183 -322 262 -401 168 -165 483 -314 796 -376 160 -32 389 -32 544 -1 128 25
254 66 341 110 62 31 220 145 307 220 27 23 54 42 62 42 8 0 35 -28 61 -62 26
-35 73 -90 104 -123 65 -69 74 -85 253 -455 293 -606 458 -869 679 -1087 241
-237 425 -338 714 -392 103 -19 213 -11 409 30 179 38 391 134 540 246 202
152 363 343 440 523 72 168 96 314 115 685 6 121 15 292 20 380 13 210 13 523
0 760 -6 105 -17 325 -25 490 -9 165 -22 395 -31 510 -25 349 -153 1743 -169
1845 -29 177 -118 481 -201 678 -137 328 -300 507 -766 845 l-134 97 -33 147
c-42 187 -99 362 -158 483 -100 206 -262 308 -613 384 -106 23 -162 31 -427
67 -188 24 -493 -28 -658 -114 -122 -64 -355 -341 -431 -513 -36 -82 -70 -222
-100 -412 -14 -92 -28 -176 -30 -188 l-4 -21 -2610 0 -2610 0 -4 21 c-2 12
-16 96 -30 188 -30 190 -64 330 -100 412 -35 80 -175 280 -257 369 -86 93
-162 146 -271 185 -75 27 -132 40 -317 72 -63 12 -184 11 -256 0z m8074 -1379
c84 -26 137 -59 202 -128 92 -96 129 -191 129 -330 0 -277 -227 -488 -505
-470 -141 9 -260 73 -346 185 -203 264 -78 645 246 748 62 20 203 17 274 -5z
m-7949 -261 c7 -14 10 -110 8 -289 l-3 -268 -40 -49 c-96 -118 -189 -216 -246
-258 -83 -63 -115 -63 -199 1 -60 44 -203 196 -262 277 l-28 39 0 268 c0 147
3 274 6 283 5 14 48 16 380 16 364 0 374 0 384 -20z m6762 -721 c166 -35 301
-153 359 -315 31 -85 30 -227 -1 -309 -64 -169 -188 -275 -363 -311 -259 -54
-514 125 -559 393 -54 322 244 609 564 542z m2343 -19 c126 -44 237 -152 286
-277 33 -86 38 -221 11 -310 -54 -174 -200 -302 -383 -333 -237 -40 -484 126
-538 361 -26 110 -5 249 50 346 62 109 198 208 319 233 66 13 186 4 255 -20z
m-9961 -67 c161 -130 286 -274 286 -331 0 -48 -141 -205 -295 -327 l-69 -55
-276 0 c-201 0 -279 3 -288 12 -9 9 -12 105 -12 369 0 197 3 364 6 373 5 14
41 16 291 16 l286 0 71 -57z m1594 -325 l-3 -383 -281 -3 -282 -2 -83 67
c-115 93 -234 214 -260 264 -14 28 -19 52 -15 72 12 58 116 174 275 306 l74
61 289 0 288 0 -2 -382z m4241 64 c194 -64 353 -121 353 -127 1 -13 -700 -248
-718 -241 -11 4 -14 47 -14 239 0 215 3 247 19 247 3 0 165 -53 360 -118z
m-2211 100 c9 -7 12 -60 10 -233 l-3 -224 -364 -3 c-285 -2 -366 1 -373 10
-13 22 -10 432 4 446 14 14 704 17 726 4z m-3075 -412 c54 -37 203 -190 270
-279 l47 -63 0 -266 c0 -147 -4 -273 -8 -280 -7 -9 -91 -12 -388 -10 l-379 3
-3 265 c-1 146 0 275 3 287 13 56 273 330 338 358 48 21 69 18 120 -15z m8232
-344 c115 -30 222 -108 286 -207 88 -138 93 -347 11 -489 -130 -226 -414 -307
-643 -184 -68 36 -156 124 -191 190 -145 271 -1 609 293 688 69 19 180 20 244
2z m-6109 -825 c169 -35 330 -121 453 -243 513 -508 282 -1371 -416 -1555
-121 -32 -304 -36 -420 -10 -283 64 -514 246 -638 500 -263 542 51 1184 640
1310 100 22 271 21 381 -2z m4197 -15 c329 -98 568 -349 647 -678 25 -103 27
-293 5 -398 -35 -166 -116 -319 -234 -443 -122 -128 -236 -199 -399 -251 -317
-100 -660 -19 -904 213 -193 183 -288 402 -288 663 0 191 41 343 135 493 133
215 344 361 606 420 104 24 322 14 432 -19z"/>
</g>
</svg>
